<svg width="26" height="38" viewBox="0 0 26 38" fill="none" xmlns="http://www.w3.org/2000/svg">
<path d="M24.9112 4.24827C24.5869 3.75163 24.1131 3.73736 23.5732 3.72111C23.5121 3.71927 23.4501 3.7174 23.3873 3.7148C23.3395 3.7126 23.2868 3.71345 23.2317 3.71434C23.0128 3.71785 22.7566 3.72197 22.6276 3.53799C22.478 3.3247 22.4922 2.91251 22.5039 2.57222C22.5076 2.4647 22.5111 2.36429 22.509 2.27967C22.488 1.48919 22.4442 0.649502 22.139 0.368794C21.9089 0.158184 21.2205 0.187361 20.5857 0.214269C20.3799 0.222992 20.1797 0.231477 20.0026 0.231477H6.48969C6.21762 0.231477 5.93242 0.209323 5.6522 0.187555C5.10618 0.14514 4.57905 0.104193 4.20473 0.231477C3.66147 0.417105 3.62469 1.39254 3.59005 2.31106L3.58818 2.36048C3.5591 3.11876 3.37119 3.70387 2.74838 3.64493C2.02401 3.57749 1.30322 3.55622 0.975712 4.21181C0.588916 4.98749 0.668688 5.79945 0.811573 7.2538C0.831983 7.46154 0.853681 7.6824 0.875491 7.91813H25.1202C25.134 7.74583 25.1488 7.57574 25.1633 7.4084C25.2768 6.09994 25.3757 4.95989 24.9112 4.24827Z" fill="#8047F8"/>
<path fill-rule="evenodd" clip-rule="evenodd" d="M2.76359 9.36055C3.14225 14.4853 3.51677 19.616 3.89129 24.7467L3.89152 24.7499C4.09488 27.5357 4.29824 30.3215 4.50226 33.1065H5.27584C5.32856 33.5424 5.38888 34.0806 5.45247 34.648C5.58156 35.7998 5.72417 37.0723 5.84406 37.8542H5.92963C6.71759 37.5659 12.1649 35.2375 12.1673 25.9677C12.1663 25.9412 12.1672 25.9148 12.1699 25.8886H10.8242C10.759 25.888 10.6959 25.8662 10.6444 25.8267C10.593 25.7871 10.5561 25.732 10.5395 25.6697C10.4084 25.3457 10.3026 25.0123 10.2232 24.6723C9.4315 25.1194 8.80278 25.8022 8.42668 26.6233C8.06966 25.7824 8.02293 24.8441 8.29466 23.9726C8.56638 23.101 9.13928 22.3515 9.91325 21.8552C9.92322 19.1502 10.936 16.5427 12.7599 14.5262L12.7883 14.5012C12.8413 14.4554 12.9092 14.4299 12.9796 14.4293C13.0203 14.4297 13.0605 14.4383 13.0976 14.4548C13.1352 14.4715 13.1689 14.4959 13.1963 14.5262C15.0415 16.5454 16.0489 19.178 16.0176 21.8989C16.8061 22.3815 17.3906 23.1304 17.6628 24.0067C17.935 24.883 17.8764 25.8272 17.4979 26.664C17.1238 25.8416 16.4946 25.1582 15.7014 24.7129C15.6529 25.0425 15.5637 25.3648 15.4357 25.6728C15.3914 25.8042 15.3028 25.8886 15.2143 25.8886H13.7791C13.7813 25.9043 13.7829 25.9201 13.7838 25.9359L13.7844 25.9396V25.9472C13.7849 25.9609 13.7849 25.9746 13.7844 25.9883C13.8041 35.5242 19.5957 37.6887 20.0839 37.8542H20.2509C20.2936 37.1031 20.4323 36.0667 20.5676 35.0563C20.6608 34.36 20.7524 33.6761 20.8097 33.1065H21.5923C21.8427 29.5985 22.1003 26.1004 22.358 22.6023L22.3581 22.6004L22.3582 22.5993C22.6877 18.1248 23.0172 13.6501 23.3318 9.15457H2.8137C2.75464 9.16612 2.75867 9.26272 2.76359 9.36055ZM12.9796 14.4293L12.9781 14.4293H12.9813L12.9796 14.4293Z" fill="#8047F8"/>
</svg>
